<?xml version="1.0" standalone="no"?>
<!DOCTYPE svg PUBLIC "-//W3C//DTD SVG 20010904//EN"
 "http://www.w3.org/TR/2001/REC-SVG-20010904/DTD/svg10.dtd">
<svg version="1.0" xmlns="http://www.w3.org/2000/svg"
 width="628.000000pt" height="628.000000pt" viewBox="0 0 628.000000 628.000000"
 preserveAspectRatio="xMidYMid meet">
<metadata>
Created by potrace 1.14, written by Peter Selinger 2001-2017
</metadata>
<g transform="translate(0.000000,628.000000) scale(0.100000,-0.100000)"
fill="#000000" stroke="none">
<path d="M4600 6188 c-85 -50 -171 -100 -190 -111 -47 -26 -190 -109 -215
-124 -11 -7 -31 -18 -45 -25 -14 -7 -27 -15 -30 -18 -3 -3 -21 -14 -40 -24
-19 -9 -55 -29 -80 -45 -25 -15 -70 -41 -100 -58 -60 -33 -326 -187 -350 -202
-8 -6 -37 -22 -65 -37 -27 -14 -57 -32 -66 -40 -8 -8 -21 -14 -27 -14 -9 0
-11 -195 -9 -801 l2 -801 37 -22 c20 -11 83 -48 140 -80 56 -32 111 -66 121
-74 9 -8 17 -13 17 -10 0 6 156 -84 177 -102 7 -5 15 -10 18 -10 4 0 59 -31
123 -68 64 -38 125 -72 135 -75 9 -4 17 -11 17 -17 0 -5 6 -10 14 -10 7 0 53
-24 102 -53 49 -29 136 -80 194 -112 58 -33 107 -63 108 -67 2 -4 8 -8 14 -8
5 0 40 -18 78 -41 56 -33 75 -40 100 -34 16 4 30 10 30 15 0 4 8 10 18 14 9 3
31 15 47 26 17 11 39 24 50 29 11 5 66 36 123 70 57 34 108 61 113 61 5 0 9 5
9 12 0 6 3 8 7 5 3 -4 13 -1 22 7 9 7 41 26 71 42 30 16 57 32 60 35 3 4 28
18 55 33 28 15 57 31 65 36 61 38 151 90 154 90 4 0 129 73 156 91 8 5 27 15
43 22 15 6 27 15 27 19 0 4 4 8 8 8 5 0 74 37 153 83 l144 83 3 800 2 801 -22
11 c-13 6 -45 24 -73 40 -298 171 -459 264 -575 332 -47 27 -358 205 -375 214
-11 6 -22 14 -25 17 -3 3 -41 25 -85 49 -44 24 -91 51 -105 60 -27 18 -119 70
-123 69 -1 0 -72 -41 -157 -91z"/>
<path d="M150 4573 l0 -1363 28 0 c35 -1 2534 -1 2627 0 l71 0 -2 1358 c-1
746 -2 1359 -3 1362 0 3 -613 5 -1361 5 l-1360 0 0 -1362z"/>
<path d="M150 1363 l0 -1363 1363 0 1362 0 0 1363 0 1364 -1362 0 -1363 0 0
-1364z"/>
<path d="M3358 2716 c-3 -9 -2 -2687 1 -2709 1 -4 614 -6 1363 -5 l1362 3 0
1361 1 1361 -1362 0 c-969 0 -1363 -3 -1365 -11z"/>
</g>
</svg>
